<svg viewBox="0 0 24 24" xmlns="http://www.w3.org/2000/svg" xmlns:xlink="http://www.w3.org/1999/xlink" width="24.000000" height="24.000000" fill="none" clip-path="url(#clipPath_0)" customFrame="url(#clipPath_0)">
	<defs>
		<clipPath id="clipPath_0">
			<rect width="24.000000" height="24.000000" x="0.000000" y="0.000000" rx="5.000000" fill="rgb(255,255,255)" />
		</clipPath>
	</defs>
	<rect id="Broken / Arrows Action / Login 3" width="24.000000" height="24.000000" x="0.000000" y="0.000000" rx="5.000000" />
	<path id="Vector" d="M8 8C8 5.17157 8 3.75736 8.87868 2.87868C9.75736 2 11.1716 2 14 2L15 2C17.8284 2 19.2426 2 20.1213 2.87868C21 3.75736 21 5.17157 21 8L21 10L21 14L21 16C21 18.8284 21 20.2426 20.1213 21.1213C19.3529 21.8897 18.175 21.9862 16 21.9983M8 16C8 18.8284 8 20.2426 8.87868 21.1213C9.51998 21.7626 10.4466 21.9359 12 21.9827" stroke="rgb(154.576,165.412,182.75)" stroke-linecap="round" stroke-width="1.500000" />
	<path id="Vector" d="M3 9.5L3 14.5C3 16.857 3 18.0355 3.73223 18.7678C4.46447 19.5 5.64298 19.5 8 19.5M8 4.5C5.64298 4.5 4.46447 4.5 3.73223 5.23223" stroke="rgb(154.576,165.412,182.75)" stroke-linecap="round" stroke-width="1.500000" />
	<path id="Vector" d="M2.5 9L2.5 0M0 2.5L2.5 0L5 2.5" stroke="rgb(154.576,165.412,182.75)" stroke-linecap="round" stroke-width="1.500000" transform="matrix(-4.37114e-08,1,-1,-4.37114e-08,15,9.5)" />
</svg>
